<svg id="Layer_1" enable-background="new 0 0 512 512" height="512" viewBox="0 0 512 512" width="512" xmlns="http://www.w3.org/2000/svg"><g><circle cx="256" cy="416" r="10"/><circle cx="442" cy="296" r="10"/><circle cx="70" cy="296" r="10"/><path d="m442 236c-33.084 0-60 26.916-60 60 0 8.399 1.742 16.397 4.872 23.662l-5.752 3.708c-2.24 1.449-3.79 3.68-4.35 6.29-.56 2.62-.07 5.29 1.37 7.529 1.85 2.87 5 4.58 8.41 4.58 1.93 0 3.8-.55 5.42-1.59l5.765-3.723c10.978 12.002 26.756 19.544 44.265 19.544 33.084 0 60-26.916 60-60s-26.916-60-60-60zm0 100c-22.056 0-40-17.944-40-40s17.944-40 40-40 40 17.944 40 40-17.944 40-40 40z"/><path d="m256 156c-38.598 0-70 31.402-70 70 0 35.929 56.154 99.543 62.557 106.679 1.897 2.113 4.603 3.321 7.443 3.321s5.546-1.208 7.443-3.321c6.403-7.136 62.557-70.75 62.557-106.679 0-38.598-31.402-70-70-70zm0 154.748c-21.839-25.911-50-65.685-50-84.748 0-27.57 22.43-50 50-50s50 22.43 50 50c0 19.063-28.161 58.837-50 84.748z"/><path d="m256 196c-16.542 0-30 13.458-30 30s13.458 30 30 30 30-13.458 30-30-13.458-30-30-30zm0 40c-5.514 0-10-4.486-10-10s4.486-10 10-10 10 4.486 10 10-4.486 10-10 10z"/><path d="m442 216c2.84 0 5.546-1.208 7.443-3.321 6.403-7.136 62.557-70.75 62.557-106.679 0-38.598-31.402-70-70-70s-70 31.402-70 70c0 35.929 56.154 99.543 62.557 106.679 1.897 2.113 4.603 3.321 7.443 3.321zm0-160c27.57 0 50 22.43 50 50 0 19.063-28.161 58.837-50 84.748-21.839-25.911-50-65.685-50-84.748 0-27.57 22.43-50 50-50z"/><path d="m472 106c0-16.542-13.458-30-30-30s-30 13.458-30 30 13.458 30 30 30 30-13.458 30-30zm-40 0c0-5.514 4.486-10 10-10s10 4.486 10 10-4.486 10-10 10-10-4.486-10-10z"/><path d="m70 36c-38.598 0-70 31.402-70 70 0 35.929 56.154 99.543 62.557 106.679 1.897 2.113 4.603 3.321 7.443 3.321s5.546-1.208 7.443-3.321c6.403-7.136 62.557-70.75 62.557-106.679 0-38.598-31.402-70-70-70zm0 154.748c-21.839-25.911-50-65.685-50-84.748 0-27.57 22.43-50 50-50s50 22.43 50 50c0 19.063-28.161 58.837-50 84.748z"/><path d="m70 76c-16.542 0-30 13.458-30 30s13.458 30 30 30 30-13.458 30-30-13.458-30-30-30zm0 40c-5.514 0-10-4.486-10-10s4.486-10 10-10 10 4.486 10 10-4.486 10-10 10z"/><path d="m130.88 323.37-5.752-3.708c3.13-7.264 4.872-15.263 4.872-23.662 0-33.084-26.916-60-60-60s-60 26.916-60 60 26.916 60 60 60c17.509 0 33.287-7.542 44.265-19.543l5.764 3.723c1.62 1.04 3.49 1.59 5.41 1.59h.01c3.41 0 6.56-1.71 8.41-4.58 2.981-4.63 1.651-10.831-2.979-13.82zm-60.88 12.63c-22.056 0-40-17.944-40-40s17.944-40 40-40 40 17.944 40 40-17.944 40-40 40z"/><circle cx="163.264" cy="356.17" r="10"/><path d="m310.91 370.569c-1.92 0-3.79.551-5.41 1.591l-5.235 3.382c-10.979-12.001-26.757-19.542-44.265-19.542s-33.286 7.541-44.265 19.542l-5.235-3.382c-1.62-1.04-3.49-1.591-5.41-1.591-3.42 0-6.56 1.711-8.42 4.57-2.98 4.641-1.65 10.84 2.99 13.83l5.214 3.364c-3.132 7.267-4.874 15.266-4.874 23.667 0 33.084 26.916 60 60 60s60-26.916 60-60c0-8.401-1.742-16.4-4.874-23.666l5.214-3.364c4.64-2.99 5.97-9.189 2.98-13.83-1.85-2.86-4.99-4.571-8.41-4.571zm-54.91 85.431c-22.056 0-40-17.944-40-40s17.944-40 40-40 40 17.944 40 40-17.944 40-40 40z"/><circle cx="348.736" cy="356.17" r="10"/></g></svg>